HIERARCHY
ROOT Hips
{
	OFFSET -3.958830 18.904000 13.208200
	CHANNELS 6 Xposition Yposition Zposition Zrotation Yrotation Xrotation 
	JOINT LHipJoint
	{
		OFFSET 0.000000 0.000000 0.000000
		CHANNELS 3 Zrotation Yrotation Xrotation
		JOINT LeftUpLeg
		{
			OFFSET 1.800000 -1.400000 0.085000
			CHANNELS 3 Zrotation Yrotation Xrotation
			JOINT LeftLeg
			{
				OFFSET 2.215000 -6.000000 0.000000
				CHANNELS 3 Zrotation Yrotation Xrotation
				JOINT LeftFoot
				{
					OFFSET 2.500000 -6.900000 0.000000
					CHANNELS 3 Zrotation Yrotation Xrotation
					JOINT LeftToeBase
					{
						OFFSET 0.200000 -0.500000 1.950000
						CHANNELS 3 Zrotation Yrotation Xrotation
						End Site
						{
							OFFSET 0.000000 0.000000 0.000000
						}
					}
				}
			}
		}
	}
	JOINT RHipJoint
	{
		OFFSET 0.000000 0.000000 0.000000
		CHANNELS 3 Zrotation Yrotation Xrotation
		JOINT RightUpLeg
		{
			OFFSET -1.800000 -1.400000 0.085000
			CHANNELS 3 Zrotation Yrotation Xrotation
			JOINT RightLeg
			{
				OFFSET -2.215000 -6.000000 0.000000
				CHANNELS 3 Zrotation Yrotation Xrotation
				JOINT RightFoot
				{
					OFFSET -2.500000 -6.900000 0.000000
					CHANNELS 3 Zrotation Yrotation Xrotation
					JOINT RightToeBase
					{
						OFFSET -0.200000 -0.500000 1.950000
						CHANNELS 3 Zrotation Yrotation Xrotation
						End Site
						{
							OFFSET 0.000000 0.000000 0.000000
						}
					}
				}
			}
		}
	}
	JOINT LowerBack
	{
		OFFSET 0.000000 0.000000 0.000000
		CHANNELS 3 Zrotation Yrotation Xrotation
		JOINT Spine
		{
			OFFSET -0.087000 1.940000 -0.288900
			CHANNELS 3 Zrotation Yrotation Xrotation
			JOINT Spine1
			{
				OFFSET 0.000000 1.950000 0.060000
				CHANNELS 3 Zrotation Yrotation Xrotation
				JOINT Neck
				{
					OFFSET 0.000000 0.000000 0.000000
					CHANNELS 3 Zrotation Yrotation Xrotation
					JOINT Neck1
					{
						OFFSET 0.000000 1.600000 0.340000
						CHANNELS 3 Zrotation Yrotation Xrotation
						JOINT Head
						{
							OFFSET 0.000000 1.667000 -0.240000
							CHANNELS 3 Zrotation Yrotation Xrotation
							End Site
							{
								OFFSET 0.000000 0.000000 0.000000
							}
						}
					}
				}
				JOINT LeftShoulder
				{
					OFFSET 0.000000 0.000000 0.000000
					CHANNELS 3 Zrotation Yrotation Xrotation
					JOINT LeftArm
					{
						OFFSET 2.700000 1.550000 -0.730000
						CHANNELS 3 Zrotation Yrotation Xrotation
						JOINT LeftForeArm
						{
							OFFSET 5.450000 0.000000 0.000000
							CHANNELS 3 Zrotation Yrotation Xrotation
							JOINT LeftHand
							{
								OFFSET 3.450000 0.000000 0.000000
								CHANNELS 3 Zrotation Yrotation Xrotation
								JOINT LeftHandIndex1
								{
									OFFSET 0.750000 0.000000 0.000000
									CHANNELS 3 Zrotation Yrotation Xrotation
									End Site
									{
										OFFSET 0.000000 0.000000 0.000000
									}
								}
							}
						}
					}
				}
				JOINT RightShoulder
				{
					OFFSET 0.000000 0.000000 0.000000
					CHANNELS 3 Zrotation Yrotation Xrotation
					JOINT RightArm
					{
						OFFSET -2.700000 1.550000 -0.730000
						CHANNELS 3 Zrotation Yrotation Xrotation
						JOINT RightForeArm
						{
							OFFSET -5.450000 0.000000 0.000000
							CHANNELS 3 Zrotation Yrotation Xrotation
							JOINT RightHand
							{
								OFFSET -3.450000 0.000000 0.000000
								CHANNELS 3 Zrotation Yrotation Xrotation
								JOINT RightHandIndex1
								{
									OFFSET -0.750000 0.000000 0.000000
									CHANNELS 3 Zrotation Yrotation Xrotation
									End Site
									{
										OFFSET 0.000000 0.000000 0.000000
									}
								}
							}
						}
					}
				}
			}
		}
	}
}
MOTION
Frames: 8
Frame Time: 0.016667
-0.591580 16.605740 -4.500270 -4.521880 -7.919746 -1.352889 -15.275457 13.789231 2.366895 16.730360 0.244817 -13.546909 1.417670 4.438024 10.657394 -0.438488 3.694028 3.199528 0.073980 -0.103090 0.186500 18.005750 -10.998264 2.809354 -10.587032 0.827026 -10.996707 6.741453 -4.123684 5.283812 -0.188857 -3.089059 3.328236 -0.023340 -0.013950 0.092870 -2.889050 -1.795459 -7.125373 4.532837 2.005013 10.616738 13.909099 1.117245 6.197770 -0.315700 -1.300824 -8.458992 -2.400824 4.253676 31.000539 -8.589740 6.082970 -16.470820 -12.099613 8.895024 6.053895 -60.299113 20.883286 -10.403342 -92.098501 -39.208976 31.432630 -3.395894 3.397884 0.510480 -0.036040 0.123090 -0.021530 14.128098 -3.799075 1.165511 62.402380 5.595123 -3.556743 -165.438017 44.504151 -164.847789 2.051164 -1.829240 -0.224260 0.185770 0.106080 -0.238500 
-0.595970 16.608440 -4.497960 -4.805041 -8.553031 -1.252084 -15.291473 13.764242 2.358559 17.027350 0.282525 -13.471357 1.433446 4.434725 10.414433 -0.419148 3.695467 3.193480 0.077180 -0.096210 0.187450 18.000064 -10.913836 2.863528 -10.632740 0.839161 -10.580962 7.372921 -4.089606 4.252960 -0.214199 -3.132811 3.315119 -0.028650 -0.026240 0.093510 -2.852170 -1.869188 -7.158601 4.397882 2.100339 10.512134 14.618955 1.159569 6.305265 -0.559211 -1.262720 -8.563906 -2.404808 4.265275 31.528035 -8.345070 6.151270 -16.419340 -11.165447 9.116413 6.352701 -59.910339 21.645835 -10.234873 -94.706026 -38.352327 32.078649 -3.356840 3.430541 0.514600 -0.046750 0.134870 -0.020950 13.734423 -4.026976 1.072658 62.938437 5.290678 -3.909891 -165.949006 44.219234 -166.237771 2.061152 -1.832477 -0.213960 0.177290 0.099800 -0.235600 
-0.594310 16.616650 -4.491670 -5.327480 -8.926527 -1.181011 -15.295487 13.695590 2.307725 17.340802 0.338213 -13.062524 1.601427 4.397649 10.135544 -0.408826 3.708359 3.185624 0.095040 -0.073760 0.193420 18.015755 -10.812014 2.960370 -10.762265 0.858225 -9.934036 8.616697 -4.076372 2.767094 -0.255903 -3.253866 3.271701 -0.017680 -0.035680 0.096460 -2.873942 -1.865388 -7.170760 4.585996 2.256425 9.995493 15.590562 1.127809 6.928146 -1.002104 -1.252960 -8.651636 -2.454405 4.288570 32.261284 -7.913950 6.001990 -16.281920 -10.206704 8.809184 6.789966 -58.968460 21.860021 -9.376188 -98.282877 -37.657567 33.622162 -3.320348 3.489463 0.512750 -0.052910 0.141160 -0.017510 13.749564 -3.708387 0.885210 63.435861 6.234910 -3.811826 -165.143095 44.208270 -164.719732 2.066710 -1.833224 -0.202720 0.170390 0.091700 -0.232710 
-0.585910 16.621360 -4.484160 -5.490397 -9.588784 -1.075207 -15.286440 13.644158 2.226587 17.160002 0.421467 -13.275833 1.600524 4.489604 10.930197 -0.404912 3.707115 3.181678 0.114340 -0.038840 0.190780 18.037236 -10.789302 3.018945 -11.310247 0.840100 -9.477946 9.704510 -4.166936 2.151432 -0.283060 -3.405065 3.216989 0.005330 -0.027100 0.096610 -2.917037 -1.774430 -7.110273 4.256436 2.450693 9.284479 16.468298 1.039546 7.833969 -1.501807 -0.975977 -8.740509 -1.947062 4.359200 32.503827 -7.155230 5.995120 -15.659620 -9.320551 8.139332 7.286462 -58.189798 21.618479 -8.560482 -100.388173 -37.320255 34.681813 -3.302184 3.547376 0.486870 -0.042420 0.134020 -0.004920 13.952436 -3.241358 0.682346 63.486292 7.858347 -3.741099 -163.471498 46.107543 -162.324750 2.069982 -1.842000 -0.191890 0.166020 0.077370 -0.219860 
-0.571470 16.625320 -4.468100 -5.551068 -9.979411 -0.954104 -15.271168 13.588745 2.166164 16.808382 0.422369 -13.488257 1.283918 4.599270 11.523258 -0.420747 3.740282 3.181067 0.133060 -0.007500 0.176740 18.067896 -10.714855 3.077138 -12.185756 0.860594 -9.100737 10.984308 -4.254755 1.451701 -0.309542 -3.584326 3.156607 0.039600 0.010800 0.099780 -2.994409 -1.791009 -7.051001 4.256604 2.201559 8.481652 16.827536 0.505669 8.916323 -2.088954 -1.417243 -8.745623 -2.797427 4.602521 32.090354 -6.542040 5.610550 -15.354990 -8.385952 7.548563 7.635638 -56.840305 20.941040 -7.303081 -102.551719 -36.559072 35.403099 -3.311191 3.591042 0.460700 -0.016870 0.114290 0.019090 14.211478 -2.508375 0.585144 62.306603 9.651355 -3.636106 -161.403728 49.326555 -159.745232 2.052951 -1.847181 -0.196160 0.187830 0.073200 -0.202480 
-0.555940 16.632890 -4.453440 -5.610863 -9.960875 -0.886623 -15.260832 13.558941 2.113523 16.518962 0.437420 -13.653251 0.863100 4.798766 12.448213 -0.416651 3.799260 3.165265 0.160790 0.039690 0.161940 18.088267 -10.662361 3.121806 -12.836928 0.882460 -8.932515 12.010809 -4.327015 1.103249 -0.323497 -3.730602 3.104606 0.079410 0.045560 0.103800 -3.050336 -1.812674 -7.003551 4.161957 2.029243 7.771748 17.180463 0.100107 9.761808 -2.650196 -1.750925 -8.806542 -3.466272 4.838523 31.914622 -5.570700 5.222690 -14.467480 -7.958656 6.315923 7.867701 -54.547835 19.193358 -5.484818 -104.163481 -35.719082 35.883824 -3.337325 3.651541 0.415570 0.010670 0.090450 0.046150 14.921938 -1.209501 0.679334 59.917018 11.401121 -3.456440 -157.605381 52.528276 -154.121670 2.052587 -1.865251 -0.186640 0.194560 0.059800 -0.177500 
-0.540430 16.651510 -4.446290 -5.541595 -10.467402 -1.029039 -15.269546 13.568285 2.099732 16.219753 0.492431 -14.025178 0.316065 5.079797 13.554683 -0.416007 3.873674 3.134957 0.174610 0.063910 0.159790 18.076908 -10.661652 3.116982 -13.468148 0.830525 -8.647350 12.582749 -4.518995 1.498115 -0.333283 -3.831333 3.070280 0.099810 0.058670 0.099460 -3.016859 -1.848802 -6.979997 3.518952 2.308198 7.393711 17.515412 0.141549 10.655005 -2.854081 -1.759023 -9.236092 -3.622198 4.712747 32.432411 -4.962400 5.046520 -14.130450 -7.347895 4.316748 7.987207 -51.938010 16.523692 -3.908250 -104.470033 -34.790089 35.336821 -3.361078 3.665208 0.401250 0.020270 0.083390 0.056850 14.757404 0.565412 1.446031 57.772069 12.003681 -4.224044 -152.572410 56.093759 -148.011359 2.079444 -1.838602 -0.186320 0.205590 0.052570 -0.169730 
-0.520490 16.675730 -4.452220 -5.238358 -10.628566 -1.676494 -15.280327 13.650517 2.062620 15.626049 0.563850 -14.239857 0.397566 5.300633 15.342805 -0.427228 3.951471 3.091509 0.203110 0.099750 0.180680 18.050582 -10.703042 3.114531 -14.042927 0.738489 -8.296607 12.689351 -4.684281 1.974720 -0.357031 -3.882849 3.039332 0.121110 0.041390 0.102190 -2.954046 -1.919938 -6.982690 2.798914 2.582384 7.701010 17.026876 0.306435 11.583457 -2.704656 -1.621294 -9.706776 -3.602729 4.214413 33.615996 -4.634300 4.723910 -14.924780 -7.069187 1.885992 7.792206 -48.210160 12.822384 -2.300297 -104.120465 -34.689833 35.251933 -3.385333 3.658502 0.417890 0.005550 0.105830 0.058010 14.200114 2.656342 2.474579 55.928969 12.471465 -4.891862 -145.463058 60.849720 -140.647561 2.133787 -1.754748 -0.179660 0.215530 0.044070 -0.173110 
